<svg width="32" height="32" viewBox="0 0 32 32" fill="none" xmlns="http://www.w3.org/2000/svg">
    <path fill-rule="evenodd" clip-rule="evenodd" d="M13.1511 23.9998C12.7831 23.9998 12.4311 23.8478 12.1791 23.5798L5.69509 16.6745C5.18976 16.1385 5.21776 15.2945 5.75376 14.7905C6.29109 14.2865 7.13509 14.3132 7.63776 14.8492L13.1378 20.7038L24.3484 8.43449C24.8471 7.88916 25.6898 7.85316 26.2338 8.34916C26.7764 8.84516 26.8138 9.68916 26.3178 10.2318L14.1351 23.5652C13.8858 23.8398 13.5311 23.9972 13.1604 23.9998H13.1511Z" fill="#E4E4E7"/>
    <mask id="mask0_82_262" style="mask-type:luminance" maskUnits="userSpaceOnUse" x="5" y="8" width="22" height="16">
        <path fill-rule="evenodd" clip-rule="evenodd" d="M13.1511 23.9998C12.7831 23.9998 12.4311 23.8478 12.1791 23.5798L5.69509 16.6745C5.18976 16.1385 5.21776 15.2945 5.75376 14.7905C6.29109 14.2865 7.13509 14.3132 7.63776 14.8492L13.1378 20.7038L24.3484 8.43449C24.8471 7.88916 25.6898 7.85316 26.2338 8.34916C26.7764 8.84516 26.8138 9.68916 26.3178 10.2318L14.1351 23.5652C13.8858 23.8398 13.5311 23.9972 13.1604 23.9998H13.1511Z" fill="white"/>
    </mask>
    <g mask="url(#mask0_82_262)">
        <rect width="32" height="32" fill="#E4E4E7"/>
    </g>
</svg>
