<svg width="16" height="16" viewBox="0 0 16 16" fill="none" xmlns="http://www.w3.org/2000/svg">
    <path fill-rule="evenodd" clip-rule="evenodd" d="M13.9979 7.31616H13.9999C14.3673 7.31616 14.6659 7.6135 14.6666 7.98083C14.6719 9.7615 13.9833 11.4382 12.7273 12.7008C11.4719 13.9635 9.79995 14.6615 8.01928 14.6668H7.99995C6.22595 14.6668 4.55728 13.9788 3.29928 12.7275C2.03662 11.4722 1.33862 9.80016 1.33328 8.0195C1.32795 6.23816 2.01662 4.56216 3.27262 3.2995C4.52795 2.03683 6.19995 1.33883 7.98062 1.3335C8.51062 1.3415 9.05062 1.39483 9.56795 1.51883C9.92528 1.6055 10.146 1.9655 10.0593 2.3235C9.97328 2.68083 9.61128 2.90083 9.25528 2.8155C8.84128 2.7155 8.40195 2.6735 7.98462 2.66683C6.55995 2.67083 5.22195 3.2295 4.21795 4.2395C3.21328 5.2495 2.66262 6.59083 2.66662 8.0155C2.67062 9.44016 3.22928 10.7775 4.23928 11.7822C5.24595 12.7828 6.58062 13.3335 7.99995 13.3335H8.01528C9.43995 13.3295 10.7779 12.7708 11.7819 11.7608C12.7866 10.7502 13.3373 9.4095 13.3333 7.98483C13.3326 7.61683 13.6299 7.31683 13.9979 7.31616ZM5.52863 7.52876C5.7893 7.2681 6.21063 7.2681 6.4713 7.52876L7.9673 9.02476L12.1653 4.22743C12.408 3.9521 12.8286 3.92276 13.106 4.16543C13.3826 4.40743 13.4106 4.82876 13.168 5.1061L8.5013 10.4394C8.37996 10.5781 8.20663 10.6601 8.02196 10.6668H7.99996C7.8233 10.6668 7.65396 10.5968 7.52863 10.4714L5.52863 8.47143C5.26796 8.21076 5.26796 7.78943 5.52863 7.52876Z" fill="#52525B"/>
    <mask id="mask0_113_421" style="mask-type:luminance" maskUnits="userSpaceOnUse" x="1" y="1" width="14" height="14">
        <path fill-rule="evenodd" clip-rule="evenodd" d="M13.9979 7.31616H13.9999C14.3673 7.31616 14.6659 7.6135 14.6666 7.98083C14.6719 9.7615 13.9833 11.4382 12.7273 12.7008C11.4719 13.9635 9.79995 14.6615 8.01928 14.6668H7.99995C6.22595 14.6668 4.55728 13.9788 3.29928 12.7275C2.03662 11.4722 1.33862 9.80016 1.33328 8.0195C1.32795 6.23816 2.01662 4.56216 3.27262 3.2995C4.52795 2.03683 6.19995 1.33883 7.98062 1.3335C8.51062 1.3415 9.05062 1.39483 9.56795 1.51883C9.92528 1.6055 10.146 1.9655 10.0593 2.3235C9.97328 2.68083 9.61128 2.90083 9.25528 2.8155C8.84128 2.7155 8.40195 2.6735 7.98462 2.66683C6.55995 2.67083 5.22195 3.2295 4.21795 4.2395C3.21328 5.2495 2.66262 6.59083 2.66662 8.0155C2.67062 9.44016 3.22928 10.7775 4.23928 11.7822C5.24595 12.7828 6.58062 13.3335 7.99995 13.3335H8.01528C9.43995 13.3295 10.7779 12.7708 11.7819 11.7608C12.7866 10.7502 13.3373 9.4095 13.3333 7.98483C13.3326 7.61683 13.6299 7.31683 13.9979 7.31616ZM5.52863 7.52876C5.7893 7.2681 6.21063 7.2681 6.4713 7.52876L7.9673 9.02476L12.1653 4.22743C12.408 3.9521 12.8286 3.92276 13.106 4.16543C13.3826 4.40743 13.4106 4.82876 13.168 5.1061L8.5013 10.4394C8.37996 10.5781 8.20663 10.6601 8.02196 10.6668H7.99996C7.8233 10.6668 7.65396 10.5968 7.52863 10.4714L5.52863 8.47143C5.26796 8.21076 5.26796 7.78943 5.52863 7.52876Z" fill="white"/>
    </mask>
    <g mask="url(#mask0_113_421)">
        <rect width="16" height="16" fill="#52525B"/>
    </g>
</svg>
