<svg width="32" height="32" viewBox="0 0 32 32" fill="none" xmlns="http://www.w3.org/2000/svg">
    <path fill-rule="evenodd" clip-rule="evenodd" d="M17.8164 22.6667C17.4671 22.6667 17.1191 22.5307 16.8577 22.26L11.7071 16.9267C11.2031 16.4027 11.2097 15.572 11.7244 15.0573L17.0577 9.72401C17.5777 9.20267 18.4217 9.20267 18.9431 9.72401C19.4631 10.2453 19.4631 11.088 18.9431 11.6093L14.5364 16.016L18.7751 20.4067C19.2871 20.9373 19.2724 21.7813 18.7431 22.292C18.4831 22.5427 18.1497 22.6667 17.8164 22.6667Z" fill="black"/>
    <mask id="mask0_44_2409" style="mask-type:luminance" maskUnits="userSpaceOnUse" x="11" y="9" width="9" height="14">
        <path fill-rule="evenodd" clip-rule="evenodd" d="M17.8164 22.6667C17.4671 22.6667 17.1191 22.5307 16.8577 22.26L11.7071 16.9267C11.2031 16.4027 11.2097 15.572 11.7244 15.0573L17.0577 9.72401C17.5777 9.20267 18.4217 9.20267 18.9431 9.72401C19.4631 10.2453 19.4631 11.088 18.9431 11.6093L14.5364 16.016L18.7751 20.4067C19.2871 20.9373 19.2724 21.7813 18.7431 22.292C18.4831 22.5427 18.1497 22.6667 17.8164 22.6667Z" fill="white"/>
    </mask>
    <g mask="url(#mask0_44_2409)">
        <rect width="32" height="32" fill="black"/>
    </g>
</svg>
