<svg width="32" height="32" viewBox="0 0 32 32" fill="none" xmlns="http://www.w3.org/2000/svg">
    <path fill-rule="evenodd" clip-rule="evenodd" d="M20 25.3333V20H25.3333L25.3347 25.3333H20ZM25.3333 17.3333H20C18.5293 17.3333 17.3333 18.5293 17.3333 20V25.3333C17.3333 26.804 18.5293 28 20 28H25.3333C26.804 28 28 26.804 28 25.3333V20C28 18.5293 26.804 17.3333 25.3333 17.3333ZM6.66667 25.3333V20H12L12.0013 25.3333H6.66667ZM12 17.3333H6.66667C5.196 17.3333 4 18.5293 4 20V25.3333C4 26.804 5.196 28 6.66667 28H12C13.4707 28 14.6667 26.804 14.6667 25.3333V20C14.6667 18.5293 13.4707 17.3333 12 17.3333ZM20 12V6.66667H25.3333L25.3347 12H20ZM25.3333 4H20C18.5293 4 17.3333 5.196 17.3333 6.66667V12C17.3333 13.4707 18.5293 14.6667 20 14.6667H25.3333C26.804 14.6667 28 13.4707 28 12V6.66667C28 5.196 26.804 4 25.3333 4ZM6.66667 12V6.66667H12L12.0013 12H6.66667ZM12 4H6.66667C5.196 4 4 5.196 4 6.66667V12C4 13.4707 5.196 14.6667 6.66667 14.6667H12C13.4707 14.6667 14.6667 13.4707 14.6667 12V6.66667C14.6667 5.196 13.4707 4 12 4Z" fill="#18181B"/>
    <mask id="mask0_54_1693" style="mask-type:luminance" maskUnits="userSpaceOnUse" x="4" y="4" width="24" height="24">
        <path fill-rule="evenodd" clip-rule="evenodd" d="M20 25.3333V20H25.3333L25.3347 25.3333H20ZM25.3333 17.3333H20C18.5293 17.3333 17.3333 18.5293 17.3333 20V25.3333C17.3333 26.804 18.5293 28 20 28H25.3333C26.804 28 28 26.804 28 25.3333V20C28 18.5293 26.804 17.3333 25.3333 17.3333ZM6.66667 25.3333V20H12L12.0013 25.3333H6.66667ZM12 17.3333H6.66667C5.196 17.3333 4 18.5293 4 20V25.3333C4 26.804 5.196 28 6.66667 28H12C13.4707 28 14.6667 26.804 14.6667 25.3333V20C14.6667 18.5293 13.4707 17.3333 12 17.3333ZM20 12V6.66667H25.3333L25.3347 12H20ZM25.3333 4H20C18.5293 4 17.3333 5.196 17.3333 6.66667V12C17.3333 13.4707 18.5293 14.6667 20 14.6667H25.3333C26.804 14.6667 28 13.4707 28 12V6.66667C28 5.196 26.804 4 25.3333 4ZM6.66667 12V6.66667H12L12.0013 12H6.66667ZM12 4H6.66667C5.196 4 4 5.196 4 6.66667V12C4 13.4707 5.196 14.6667 6.66667 14.6667H12C13.4707 14.6667 14.6667 13.4707 14.6667 12V6.66667C14.6667 5.196 13.4707 4 12 4Z" fill="white"/>
    </mask>
    <g mask="url(#mask0_54_1693)">
        <rect width="32" height="32" fill="#18181B"/>
    </g>
</svg>
