<svg width="24" height="24" viewBox="0 0 24 24" fill="none" xmlns="http://www.w3.org/2000/svg">
    <path fill-rule="evenodd" clip-rule="evenodd" d="M4.40281 11.622C5.51881 12.005 6.40781 12.939 6.77981 14.123L6.81981 14.243C7.24581 15.499 7.07281 16.851 6.35881 17.865C6.22881 18.049 6.25781 18.269 6.39481 18.373L8.46681 19.947C8.53981 20.002 8.61081 20.002 8.65481 19.997C8.70481 19.989 8.77781 19.962 8.83681 19.878L9.06781 19.55C9.75681 18.573 10.8668 17.97 12.0388 17.936C13.3548 17.909 14.5368 18.512 15.2728 19.575L15.3908 19.746C15.4498 19.83 15.5218 19.858 15.5728 19.866C15.6168 19.875 15.6888 19.872 15.7608 19.816L17.8218 18.261C17.9658 18.153 17.9978 17.922 17.8908 17.767L17.6308 17.392C16.9608 16.424 16.7618 15.168 17.0988 14.033C17.4648 12.797 18.3958 11.819 19.5908 11.419L19.7918 11.351C19.9528 11.298 20.0398 11.098 19.9828 10.914L19.1958 8.393C19.1588 8.275 19.0828 8.222 19.0408 8.2C18.9808 8.169 18.9158 8.164 18.8538 8.185L18.5138 8.298C17.3508 8.685 16.0678 8.475 15.0828 7.734L14.9748 7.653C14.0388 6.949 13.4818 5.814 13.4858 4.618L13.4878 4.338C13.4878 4.205 13.4248 4.122 13.3868 4.084C13.3508 4.047 13.2898 4.003 13.2038 4.003L10.6568 4C10.5008 4 10.3738 4.149 10.3728 4.333L10.3718 4.575C10.3668 5.79 9.79781 6.946 8.84981 7.669L8.72081 7.767C7.67781 8.56 6.31781 8.784 5.08581 8.364C5.03881 8.348 4.99481 8.351 4.95281 8.373C4.92081 8.389 4.86281 8.43 4.83481 8.521L4.01781 11.117C3.95881 11.306 4.05581 11.503 4.23881 11.566L4.40281 11.622ZM8.61381 22C8.12781 22 7.65581 21.842 7.25781 21.539L5.18581 19.966C4.19581 19.216 3.97681 17.773 4.69681 16.75C5.07081 16.22 5.14781 15.539 4.92781 14.893L4.87281 14.725C4.68981 14.143 4.27181 13.691 3.75481 13.514H3.75381L3.59081 13.457C2.37281 13.04 1.72281 11.749 2.10981 10.517L2.92581 7.922C3.11081 7.335 3.50981 6.861 4.04981 6.588C4.57781 6.322 5.17481 6.281 5.73281 6.472C6.33181 6.676 6.99681 6.565 7.50981 6.175L7.63881 6.077C8.09481 5.729 8.36981 5.164 8.37181 4.567L8.37281 4.326C8.37781 3.042 9.40281 2 10.6558 2H10.6598L13.2068 2.003C13.8088 2.004 14.3768 2.242 14.8048 2.673C15.2478 3.118 15.4898 3.713 15.4878 4.348L15.4858 4.627C15.4838 5.193 15.7428 5.728 16.1798 6.056L16.2868 6.137C16.7458 6.482 17.3438 6.581 17.8808 6.401L18.2198 6.288C18.7968 6.096 19.4108 6.143 19.9518 6.42C20.5068 6.704 20.9168 7.193 21.1048 7.798L21.8918 10.319C22.2718 11.537 21.6138 12.851 20.4268 13.248L20.2258 13.315C19.6498 13.509 19.1968 13.989 19.0158 14.601C18.8498 15.162 18.9458 15.779 19.2748 16.253L19.5348 16.628C20.2488 17.66 20.0208 19.108 19.0268 19.857L16.9658 21.413C16.4708 21.787 15.8638 21.938 15.2548 21.841C14.6408 21.742 14.1048 21.402 13.7458 20.884L13.6278 20.712C13.2778 20.208 12.7178 19.902 12.1308 19.935C11.5428 19.951 11.0348 20.23 10.7028 20.702L10.4718 21.03C10.1098 21.543 9.57281 21.878 8.96181 21.974C8.84481 21.992 8.72881 22 8.61381 22ZM12 10.4999C11.173 10.4999 10.5 11.1729 10.5 11.9999C10.5 12.8269 11.173 13.4999 12 13.4999C12.827 13.4999 13.5 12.8269 13.5 11.9999C13.5 11.1729 12.827 10.4999 12 10.4999ZM12 15.4999C10.07 15.4999 8.50001 13.9299 8.50001 11.9999C8.50001 10.0699 10.07 8.4999 12 8.4999C13.93 8.4999 15.5 10.0699 15.5 11.9999C15.5 13.9299 13.93 15.4999 12 15.4999Z" fill="#D9F99D"/>
    <mask id="mask0_90_3275" style="mask-type:luminance" maskUnits="userSpaceOnUse" x="1" y="2" width="21" height="20">
        <path fill-rule="evenodd" clip-rule="evenodd" d="M4.40281 11.622C5.51881 12.005 6.40781 12.939 6.77981 14.123L6.81981 14.243C7.24581 15.499 7.07281 16.851 6.35881 17.865C6.22881 18.049 6.25781 18.269 6.39481 18.373L8.46681 19.947C8.53981 20.002 8.61081 20.002 8.65481 19.997C8.70481 19.989 8.77781 19.962 8.83681 19.878L9.06781 19.55C9.75681 18.573 10.8668 17.97 12.0388 17.936C13.3548 17.909 14.5368 18.512 15.2728 19.575L15.3908 19.746C15.4498 19.83 15.5218 19.858 15.5728 19.866C15.6168 19.875 15.6888 19.872 15.7608 19.816L17.8218 18.261C17.9658 18.153 17.9978 17.922 17.8908 17.767L17.6308 17.392C16.9608 16.424 16.7618 15.168 17.0988 14.033C17.4648 12.797 18.3958 11.819 19.5908 11.419L19.7918 11.351C19.9528 11.298 20.0398 11.098 19.9828 10.914L19.1958 8.393C19.1588 8.275 19.0828 8.222 19.0408 8.2C18.9808 8.169 18.9158 8.164 18.8538 8.185L18.5138 8.298C17.3508 8.685 16.0678 8.475 15.0828 7.734L14.9748 7.653C14.0388 6.949 13.4818 5.814 13.4858 4.618L13.4878 4.338C13.4878 4.205 13.4248 4.122 13.3868 4.084C13.3508 4.047 13.2898 4.003 13.2038 4.003L10.6568 4C10.5008 4 10.3738 4.149 10.3728 4.333L10.3718 4.575C10.3668 5.79 9.79781 6.946 8.84981 7.669L8.72081 7.767C7.67781 8.56 6.31781 8.784 5.08581 8.364C5.03881 8.348 4.99481 8.351 4.95281 8.373C4.92081 8.389 4.86281 8.43 4.83481 8.521L4.01781 11.117C3.95881 11.306 4.05581 11.503 4.23881 11.566L4.40281 11.622ZM8.61381 22C8.12781 22 7.65581 21.842 7.25781 21.539L5.18581 19.966C4.19581 19.216 3.97681 17.773 4.69681 16.75C5.07081 16.22 5.14781 15.539 4.92781 14.893L4.87281 14.725C4.68981 14.143 4.27181 13.691 3.75481 13.514H3.75381L3.59081 13.457C2.37281 13.04 1.72281 11.749 2.10981 10.517L2.92581 7.922C3.11081 7.335 3.50981 6.861 4.04981 6.588C4.57781 6.322 5.17481 6.281 5.73281 6.472C6.33181 6.676 6.99681 6.565 7.50981 6.175L7.63881 6.077C8.09481 5.729 8.36981 5.164 8.37181 4.567L8.37281 4.326C8.37781 3.042 9.40281 2 10.6558 2H10.6598L13.2068 2.003C13.8088 2.004 14.3768 2.242 14.8048 2.673C15.2478 3.118 15.4898 3.713 15.4878 4.348L15.4858 4.627C15.4838 5.193 15.7428 5.728 16.1798 6.056L16.2868 6.137C16.7458 6.482 17.3438 6.581 17.8808 6.401L18.2198 6.288C18.7968 6.096 19.4108 6.143 19.9518 6.42C20.5068 6.704 20.9168 7.193 21.1048 7.798L21.8918 10.319C22.2718 11.537 21.6138 12.851 20.4268 13.248L20.2258 13.315C19.6498 13.509 19.1968 13.989 19.0158 14.601C18.8498 15.162 18.9458 15.779 19.2748 16.253L19.5348 16.628C20.2488 17.66 20.0208 19.108 19.0268 19.857L16.9658 21.413C16.4708 21.787 15.8638 21.938 15.2548 21.841C14.6408 21.742 14.1048 21.402 13.7458 20.884L13.6278 20.712C13.2778 20.208 12.7178 19.902 12.1308 19.935C11.5428 19.951 11.0348 20.23 10.7028 20.702L10.4718 21.03C10.1098 21.543 9.57281 21.878 8.96181 21.974C8.84481 21.992 8.72881 22 8.61381 22ZM12 10.4999C11.173 10.4999 10.5 11.1729 10.5 11.9999C10.5 12.8269 11.173 13.4999 12 13.4999C12.827 13.4999 13.5 12.8269 13.5 11.9999C13.5 11.1729 12.827 10.4999 12 10.4999ZM12 15.4999C10.07 15.4999 8.50001 13.9299 8.50001 11.9999C8.50001 10.0699 10.07 8.4999 12 8.4999C13.93 8.4999 15.5 10.0699 15.5 11.9999C15.5 13.9299 13.93 15.4999 12 15.4999Z" fill="white"/>
    </mask>
    <g mask="url(#mask0_90_3275)">
        <rect width="24" height="24" fill="#D9F99D"/>
    </g>
</svg>
