<svg width="32" height="32" viewBox="0 0 32 32" fill="none" xmlns="http://www.w3.org/2000/svg">
    <path fill-rule="evenodd" clip-rule="evenodd" d="M28.9105 13.7681C28.9008 13.7893 28.8911 13.8104 28.8821 13.832C28.873 13.8543 28.8658 13.8776 28.8586 13.9009C28.8469 13.9387 28.8352 13.9763 28.8154 14.0093C28.776 14.0747 28.7245 14.1296 28.6728 14.1846C28.658 14.2003 28.6433 14.216 28.6288 14.232C28.6126 14.2487 28.5984 14.267 28.5841 14.2853C28.5642 14.3108 28.5443 14.3364 28.5194 14.3573C28.4447 14.4183 28.3585 14.4607 28.2725 14.503C28.2663 14.506 28.2602 14.509 28.2541 14.512C28.2359 14.5208 28.2186 14.5319 28.2014 14.543C28.1768 14.5588 28.1521 14.5746 28.1248 14.584C27.9808 14.6373 27.8274 14.6667 27.6688 14.6667C27.5968 14.6667 27.5221 14.6613 27.4488 14.648L21.7821 13.708C21.0554 13.588 20.5648 12.9013 20.6848 12.1747C20.8048 11.4493 21.4901 10.952 22.2181 11.0787L24.4101 11.4413C22.7501 8.52667 19.5808 6.66667 16.0928 6.66667C12.1474 6.66667 8.67143 8.95733 7.23543 12.5C7.02609 13.02 6.52609 13.3333 5.99943 13.3333C5.83276 13.3333 5.66343 13.3027 5.49943 13.236C4.81676 12.96 4.48743 12.1827 4.76476 11.5C6.61009 6.944 11.0568 4 16.0928 4C20.6421 4 24.7768 6.49333 26.8634 10.384L27.3554 7.75333C27.4914 7.03067 28.1901 6.552 28.9114 6.69067C29.6354 6.82533 30.1128 7.52267 29.9768 8.24667L28.9781 13.58C28.9653 13.648 28.9379 13.708 28.9105 13.7681ZM24.7646 19.5003C25.0406 18.8163 25.8193 18.4883 26.5006 18.7643C27.1833 19.0403 27.5126 19.8176 27.2353 20.5003C25.3899 25.0563 20.9433 28.0003 15.9073 28.0003C11.358 28.0003 7.22328 25.5069 5.13662 21.6163L4.64328 24.2456C4.52462 24.8869 3.96462 25.3336 3.33395 25.3336C3.25262 25.3336 3.16995 25.3256 3.08728 25.3096C2.36328 25.1749 1.88728 24.4776 2.02328 23.7536L3.02195 18.4203C3.03209 18.3679 3.05453 18.3214 3.07708 18.2747C3.09012 18.2477 3.1032 18.2206 3.11395 18.1923C3.12449 18.1657 3.1337 18.1382 3.14293 18.1107C3.16287 18.0511 3.18289 17.9913 3.21662 17.9403C3.2363 17.9099 3.26202 17.8856 3.28791 17.8612C3.30412 17.8459 3.32039 17.8305 3.33528 17.8136C3.34703 17.8 3.35864 17.7863 3.37024 17.7726C3.43369 17.6978 3.49658 17.6237 3.57662 17.5696C3.58448 17.5639 3.59387 17.5605 3.60315 17.5571C3.61119 17.5542 3.61914 17.5513 3.62595 17.5469C3.75528 17.4629 3.89395 17.3976 4.04728 17.3643C4.05662 17.3621 4.06635 17.3627 4.07605 17.3632C4.08435 17.3637 4.09262 17.3642 4.10062 17.3629C4.24728 17.3389 4.39528 17.3243 4.55128 17.3509L10.2179 18.2923C10.9446 18.4109 11.4353 19.0989 11.3153 19.8256C11.2073 20.4776 10.642 20.9403 10.0006 20.9403C9.92862 20.9403 9.85528 20.9349 9.78195 20.9216L7.58995 20.5589C9.24995 23.4736 12.4193 25.3336 15.9073 25.3336C19.8526 25.3336 23.3286 23.0429 24.7646 19.5003Z" fill="#18181B"/>
    <mask id="mask0_88_87" style="mask-type:luminance" maskUnits="userSpaceOnUse" x="2" y="4" width="28" height="25">
        <path fill-rule="evenodd" clip-rule="evenodd" d="M28.9105 13.7681C28.9008 13.7893 28.8911 13.8104 28.8821 13.832C28.873 13.8543 28.8658 13.8776 28.8586 13.9009C28.8469 13.9387 28.8352 13.9763 28.8154 14.0093C28.776 14.0747 28.7245 14.1296 28.6728 14.1846C28.658 14.2003 28.6433 14.216 28.6288 14.232C28.6126 14.2487 28.5984 14.267 28.5841 14.2853C28.5642 14.3108 28.5443 14.3364 28.5194 14.3573C28.4447 14.4183 28.3585 14.4607 28.2725 14.503C28.2663 14.506 28.2602 14.509 28.2541 14.512C28.2359 14.5208 28.2186 14.5319 28.2014 14.543C28.1768 14.5588 28.1521 14.5746 28.1248 14.584C27.9808 14.6373 27.8274 14.6667 27.6688 14.6667C27.5968 14.6667 27.5221 14.6613 27.4488 14.648L21.7821 13.708C21.0554 13.588 20.5648 12.9013 20.6848 12.1747C20.8048 11.4493 21.4901 10.952 22.2181 11.0787L24.4101 11.4413C22.7501 8.52667 19.5808 6.66667 16.0928 6.66667C12.1474 6.66667 8.67143 8.95733 7.23543 12.5C7.02609 13.02 6.52609 13.3333 5.99943 13.3333C5.83276 13.3333 5.66343 13.3027 5.49943 13.236C4.81676 12.96 4.48743 12.1827 4.76476 11.5C6.61009 6.944 11.0568 4 16.0928 4C20.6421 4 24.7768 6.49333 26.8634 10.384L27.3554 7.75333C27.4914 7.03067 28.1901 6.552 28.9114 6.69067C29.6354 6.82533 30.1128 7.52267 29.9768 8.24667L28.9781 13.58C28.9653 13.648 28.9379 13.708 28.9105 13.7681ZM24.7646 19.5003C25.0406 18.8163 25.8193 18.4883 26.5006 18.7643C27.1833 19.0403 27.5126 19.8176 27.2353 20.5003C25.3899 25.0563 20.9433 28.0003 15.9073 28.0003C11.358 28.0003 7.22328 25.5069 5.13662 21.6163L4.64328 24.2456C4.52462 24.8869 3.96462 25.3336 3.33395 25.3336C3.25262 25.3336 3.16995 25.3256 3.08728 25.3096C2.36328 25.1749 1.88728 24.4776 2.02328 23.7536L3.02195 18.4203C3.03209 18.3679 3.05453 18.3214 3.07708 18.2747C3.09012 18.2477 3.1032 18.2206 3.11395 18.1923C3.12449 18.1657 3.1337 18.1382 3.14293 18.1107C3.16287 18.0511 3.18289 17.9913 3.21662 17.9403C3.2363 17.9099 3.26202 17.8856 3.28791 17.8612C3.30412 17.8459 3.32039 17.8305 3.33528 17.8136C3.34703 17.8 3.35864 17.7863 3.37024 17.7726C3.43369 17.6978 3.49658 17.6237 3.57662 17.5696C3.58448 17.5639 3.59387 17.5605 3.60315 17.5571C3.61119 17.5542 3.61914 17.5513 3.62595 17.5469C3.75528 17.4629 3.89395 17.3976 4.04728 17.3643C4.05662 17.3621 4.06635 17.3627 4.07605 17.3632C4.08435 17.3637 4.09262 17.3642 4.10062 17.3629C4.24728 17.3389 4.39528 17.3243 4.55128 17.3509L10.2179 18.2923C10.9446 18.4109 11.4353 19.0989 11.3153 19.8256C11.2073 20.4776 10.642 20.9403 10.0006 20.9403C9.92862 20.9403 9.85528 20.9349 9.78195 20.9216L7.58995 20.5589C9.24995 23.4736 12.4193 25.3336 15.9073 25.3336C19.8526 25.3336 23.3286 23.0429 24.7646 19.5003Z" fill="white"/>
    </mask>
    <g mask="url(#mask0_88_87)">
        <rect width="32" height="32" fill="#18181B"/>
    </g>
</svg>
